<?xml version="1.0" encoding="UTF-8"?>
<!DOCTYPE svg PUBLIC "-//W3C//DTD SVG 1.1//EN" "http://www.w3.org/Graphics/SVG/1.1/DTD/svg11.dtd">
<svg xmlns="http://www.w3.org/2000/svg" version="1.1" width="3454px" height="3530px" style="shape-rendering:geometricPrecision; text-rendering:geometricPrecision; image-rendering:optimizeQuality; fill-rule:evenodd; clip-rule:evenodd" xmlns:xlink="http://www.w3.org/1999/xlink">
<g><path style="opacity:1" fill="#253876" d="M 1104.5,-0.5 C 1105.5,-0.5 1106.5,-0.5 1107.5,-0.5C 1102.33,367.81 1100.49,736.143 1102,1104.5C 1102.34,1196.87 1104.34,1289.2 1108,1381.5C 1111.11,1453.51 1122.45,1524.18 1142,1593.5C 1165.46,1671.47 1204.13,1740.47 1258,1800.5C 1296.98,1842.15 1338.48,1880.99 1382.5,1917C 1458.68,1980.45 1541.34,2034.45 1630.5,2079C 1660.89,2093.63 1692.22,2105.8 1724.5,2115.5C 1724.5,2307.83 1724.5,2500.17 1724.5,2692.5C 1524.9,2585.4 1331.23,2469.23 1143.5,2344C 1062.05,2288.89 983.712,2229.56 908.5,2166C 734.454,2015.61 644.454,1824.78 638.5,1593.5C 639.315,1285.17 639.815,976.835 640,668.5C 644.372,597.343 662.039,529.677 693,465.5C 724.835,400.443 763.168,339.777 808,283.5C 875.062,201.438 949.228,126.271 1030.5,58C 1054.78,37.8745 1079.45,18.3745 1104.5,-0.5 Z"/></g>
<g><path style="opacity:1" fill="#4395cd" d="M 1264.5,-0.5 C 1265.5,-0.5 1266.5,-0.5 1267.5,-0.5C 1383.15,45.1445 1491.15,103.978 1591.5,176C 1669.85,234.502 1712.35,313.002 1719,411.5C 1720.06,427.482 1720.72,443.482 1721,459.5C 1721.5,595.166 1721.67,730.833 1721.5,866.5C 1930.5,866.5 2139.5,866.5 2348.5,866.5C 2348.15,577.487 2346.15,288.487 2342.5,-0.5C 2343.17,-0.5 2343.83,-0.5 2344.5,-0.5C 2458,83.5958 2559.17,180.929 2648,291.5C 2692.1,347.349 2729.43,407.682 2760,472.5C 2790.64,537.408 2807.31,605.741 2810,677.5C 2810.18,982.503 2810.68,1287.5 2811.5,1592.5C 2805.66,1822.98 2716.32,2013.48 2543.5,2164C 2470.89,2225.79 2395.22,2283.46 2316.5,2337C 2125.58,2465.33 1928.24,2583.83 1724.5,2692.5C 1724.5,2500.17 1724.5,2307.83 1724.5,2115.5C 1786.06,2096.05 1844.4,2069.55 1899.5,2036C 1984.57,1983.77 2063.91,1923.77 2137.5,1856C 2173.88,1822.26 2206.38,1785.43 2235,1745.5C 2282.51,1674.76 2313.18,1597.09 2327,1512.5C 2334.77,1467.1 2339.93,1421.44 2342.5,1375.5C 2135.5,1374.5 1928.5,1374.17 1721.5,1374.5C 1721.5,1561.17 1721.5,1747.83 1721.5,1934.5C 1718.98,1934.24 1716.65,1933.41 1714.5,1932C 1621.46,1879.9 1530.79,1824.24 1442.5,1765C 1421.89,1750.72 1401.55,1736.05 1381.5,1721C 1342.42,1685.38 1313.92,1642.55 1296,1592.5C 1274.34,1530.36 1263.5,1466.36 1263.5,1400.5C 1264.49,933.503 1264.83,466.503 1264.5,-0.5 Z"/></g>
<g><path style="opacity:1" fill="#253876" d="M -0.5,2904.5 C 53.8333,2904.5 108.167,2904.5 162.5,2904.5C 162.333,3006.5 162.5,3108.5 163,3210.5C 164.11,3230.86 171.61,3248.36 185.5,3263C 194.62,3270.39 204.953,3275.39 216.5,3278C 240.336,3283.11 264.002,3282.45 287.5,3276C 310.835,3267.87 325.335,3251.71 331,3227.5C 332.325,3221.22 333.325,3214.88 334,3208.5C 334.5,3107.17 334.667,3005.83 334.5,2904.5C 388.833,2904.5 443.167,2904.5 497.5,2904.5C 497.667,3012.83 497.5,3121.17 497,3229.5C 495.721,3265.96 486.054,3299.96 468,3331.5C 449.664,3357.93 425.497,3377.1 395.5,3389C 358.8,3402.94 320.8,3410.61 281.5,3412C 236.089,3414.84 191.089,3411.84 146.5,3403C 113.447,3396.22 83.447,3382.88 56.5,3363C 26.1614,3335.16 8.32809,3300.66 3,3259.5C 1.73349,3250.36 0.566821,3241.36 -0.5,3232.5C -0.5,3123.17 -0.5,3013.83 -0.5,2904.5 Z"/></g>
<g><path style="opacity:1" fill="#253876" d="M 1020.5,2904.5 C 1067.5,2904.5 1114.5,2904.5 1161.5,2904.5C 1161.5,2935.17 1161.5,2965.83 1161.5,2996.5C 1114.5,2996.5 1067.5,2996.5 1020.5,2996.5C 1020.5,2965.83 1020.5,2935.17 1020.5,2904.5 Z"/></g>
<g><path style="opacity:1" fill="#4496ce" d="M 1672.5,2904.5 C 1726.83,2904.5 1781.17,2904.5 1835.5,2904.5C 1835.5,2963.83 1835.5,3023.17 1835.5,3082.5C 1895.83,3082.5 1956.17,3082.5 2016.5,3082.5C 2016.5,3023.17 2016.5,2963.83 2016.5,2904.5C 2070.83,2904.5 2125.17,2904.5 2179.5,2904.5C 2179.5,3072.17 2179.5,3239.83 2179.5,3407.5C 2125.17,3407.5 2070.83,3407.5 2016.5,3407.5C 2016.5,3340.83 2016.5,3274.17 2016.5,3207.5C 1956.17,3207.5 1895.83,3207.5 1835.5,3207.5C 1835.5,3274.17 1835.5,3340.83 1835.5,3407.5C 1781.17,3407.5 1726.83,3407.5 1672.5,3407.5C 1672.5,3239.83 1672.5,3072.17 1672.5,2904.5 Z"/></g>
<g><path style="opacity:1" fill="#4496ce" d="M 2684.5,2904.5 C 2731.5,2904.5 2778.5,2904.5 2825.5,2904.5C 2825.5,3072.17 2825.5,3239.83 2825.5,3407.5C 2778.5,3407.5 2731.5,3407.5 2684.5,3407.5C 2684.5,3239.83 2684.5,3072.17 2684.5,2904.5 Z"/></g>
<g><path style="opacity:1" fill="#4496ce" d="M 2409.5,3021.5 C 2449.92,3020.89 2490.26,3022.39 2530.5,3026C 2593.6,3031.11 2629.44,3064.94 2638,3127.5C 2640.78,3152.81 2641.11,3178.14 2639,3203.5C 2637.51,3224.36 2628.68,3241.2 2612.5,3254C 2606.88,3257.32 2600.88,3259.65 2594.5,3261C 2520.86,3262.48 2447.19,3262.98 2373.5,3262.5C 2373.42,3287.59 2385.76,3302.09 2410.5,3306C 2415.47,3306.89 2420.47,3307.55 2425.5,3308C 2492.83,3308.5 2560.17,3308.67 2627.5,3308.5C 2627.5,3341.5 2627.5,3374.5 2627.5,3407.5C 2541.17,3407.67 2454.83,3407.5 2368.5,3407C 2348.23,3406.89 2328.23,3404.55 2308.5,3400C 2274.04,3390.87 2252.2,3369.04 2243,3334.5C 2237.29,3311.17 2233.96,3287.51 2233,3263.5C 2230.49,3218.42 2231.49,3173.42 2236,3128.5C 2239.19,3101.23 2249.19,3076.9 2266,3055.5C 2279.47,3043.85 2294.97,3036.01 2312.5,3032C 2328.25,3027.84 2344.25,3025.18 2360.5,3024C 2376.99,3023.16 2393.33,3022.32 2409.5,3021.5 Z M 2421.5,3120.5 C 2440.06,3119.49 2458.4,3120.99 2476.5,3125C 2497,3130.84 2503.5,3143.67 2496,3163.5C 2492.46,3168.52 2487.62,3171.36 2481.5,3172C 2445.5,3172.5 2409.5,3172.67 2373.5,3172.5C 2372.73,3159.91 2375.56,3148.24 2382,3137.5C 2386.36,3132.07 2391.86,3128.23 2398.5,3126C 2406.19,3123.7 2413.86,3121.87 2421.5,3120.5 Z"/></g>
<g><path style="opacity:1" fill="#253876" d="M 622.5,3026.5 C 694.167,3026.33 765.834,3026.5 837.5,3027C 914.839,3034.34 957.673,3076.51 966,3153.5C 966.5,3238.17 966.667,3322.83 966.5,3407.5C 919.5,3407.5 872.5,3407.5 825.5,3407.5C 825.667,3338.83 825.5,3270.17 825,3201.5C 825.308,3182.72 820.641,3165.39 811,3149.5C 799.806,3137.49 785.973,3130.65 769.5,3129C 753.528,3127.51 737.528,3127.18 721.5,3128C 710.129,3129.04 703.629,3135.2 702,3146.5C 701.5,3233.5 701.333,3320.5 701.5,3407.5C 654.167,3407.5 606.833,3407.5 559.5,3407.5C 559.024,3300.15 559.524,3192.82 561,3085.5C 566.351,3049.98 586.851,3030.31 622.5,3026.5 Z"/></g>
<g><path style="opacity:1" fill="#253876" d="M 1020.5,3026.5 C 1067.5,3026.5 1114.5,3026.5 1161.5,3026.5C 1161.5,3153.5 1161.5,3280.5 1161.5,3407.5C 1114.5,3407.5 1067.5,3407.5 1020.5,3407.5C 1020.5,3280.5 1020.5,3153.5 1020.5,3026.5 Z"/></g>
<g><path style="opacity:1" fill="#253876" d="M 1610.5,3529.5 C 1563.17,3529.5 1515.83,3529.5 1468.5,3529.5C 1468.5,3488.83 1468.5,3448.17 1468.5,3407.5C 1430.5,3407.67 1392.5,3407.5 1354.5,3407C 1320.61,3407.45 1289.61,3398.45 1261.5,3380C 1243.56,3364.97 1230.39,3346.47 1222,3324.5C 1214.16,3303.15 1209.16,3281.15 1207,3258.5C 1205.47,3234.52 1205.13,3210.52 1206,3186.5C 1207.61,3152.39 1215.94,3120.06 1231,3089.5C 1248.91,3057.43 1276.08,3037.93 1312.5,3031C 1321.75,3029.11 1331.09,3027.77 1340.5,3027C 1409.17,3026.33 1477.83,3026.33 1546.5,3027C 1584.8,3033.3 1605.97,3055.8 1610,3094.5C 1610.5,3239.5 1610.67,3384.5 1610.5,3529.5 Z M 1398.5,3127.5 C 1415.54,3127.09 1432.54,3127.59 1449.5,3129C 1460.8,3131.05 1466.97,3137.88 1468,3149.5C 1468.5,3201.5 1468.67,3253.5 1468.5,3305.5C 1442.46,3305.95 1416.46,3305.45 1390.5,3304C 1374.76,3298.59 1363.92,3288.09 1358,3272.5C 1351.77,3254.36 1348.93,3235.7 1349.5,3216.5C 1348.74,3193.66 1352.57,3171.66 1361,3150.5C 1369.62,3136.6 1382.12,3128.93 1398.5,3127.5 Z"/></g>
<g><path style="opacity:1" fill="#4496ce" d="M 3453.5,3150.5 C 3453.5,3236.17 3453.5,3321.83 3453.5,3407.5C 3406.5,3407.5 3359.5,3407.5 3312.5,3407.5C 3312.67,3337.17 3312.5,3266.83 3312,3196.5C 3311.74,3180.13 3307.74,3164.79 3300,3150.5C 3290.89,3139.19 3279.05,3132.35 3264.5,3130C 3255.57,3128.4 3246.57,3127.56 3237.5,3127.5C 3237.5,3220.83 3237.5,3314.17 3237.5,3407.5C 3190.17,3407.5 3142.83,3407.5 3095.5,3407.5C 3095.5,3314.17 3095.5,3220.83 3095.5,3127.5C 3075.79,3127.06 3056.12,3127.56 3036.5,3129C 3029,3131.17 3024.17,3136 3022,3143.5C 3020.52,3231.47 3020.02,3319.47 3020.5,3407.5C 2973.5,3407.5 2926.5,3407.5 2879.5,3407.5C 2879.33,3301.5 2879.5,3195.5 2880,3089.5C 2881.44,3063.08 2893.94,3044.25 2917.5,3033C 2925.57,3029.9 2933.9,3027.9 2942.5,3027C 3069.83,3026.33 3197.17,3026.33 3324.5,3027C 3400.46,3034.13 3443.46,3075.3 3453.5,3150.5 Z"/></g>
</svg>
